:FULLY-SPECIFIED
:FORCE-ALL-JOINTS-BE-3DOF
:DEGREES
747
root 4.14329 16.8144 14.4655 -163.241 -8.91519 -171.217
lfemur -32.7583 1.58744 -14.8249
ltibia 45.0331 -0 0
lfoot -25.9652 5.02751 -0.810281
ltoes 6.63602 -0 0
rfemur -27.7517 -32.5253 10.9433
rtibia 106.555 -0 0
rfoot 16.3119 3.47162 0.122246
rtoes 17.8666 -0 0
lowerback 2.60862 6.50909 -2.18648
upperback -1.37958 8.54732 -1.57488
thorax -2.93435 4.27838 -0.843986
lowerneck -6.54366 -8.55146 -1.54635
upperneck -2.10814 -11.4929 5.63392
head 0.879334 -5.76139 1.6692
lclavicle 3.33958e-014 1.11319e-014 0
lhumerus -53.6524 -6.25157 74.6602
lradius 48.528 -0 0
lwrist 15.3469 0 0
lhand -28.473 -4.29373 0.00445525
lfingers 7.12502 -0 0
lthumb -1.84268 25.6624 0.00422477
rclavicle 3.33958e-014 1.11319e-014 0
rhumerus 24.8304 39.7367 -66.7919
rradius 95.5343 -0 0
rwrist -0.558354 0 0
rhand -19.9686 -20.4258 0.196667
rfingers 7.12502 -0 0
rthumb 6.36937 -50.2624 0.192128
748
root 4.10499 16.6347 14.6637 -163.133 -6.74686 -171.298
lfemur -34.1383 3.10109 -16.1178
ltibia 47.6847 -0 0
lfoot -28.6825 6.89692 -0.449145
ltoes 5.75113 -0 0
rfemur -27.9455 -32.8238 12.7081
rtibia 104.791 -0 0
rfoot 14.8856 2.92773 0.067882
rtoes 16.8805 -0 0
lowerback 2.8136 6.39561 -2.57854
upperback -1.25337 8.37196 -1.62968
thorax -2.9723 4.19733 -0.701243
lowerneck -6.39501 -8.64419 -1.59379
upperneck -2.1499 -11.6209 5.92204
head 0.867275 -5.82673 1.7675
lclavicle 3.33958e-014 1.11319e-014 0
lhumerus -53.097 -5.29221 77.1496
lradius 48.4908 -0 0
lwrist 14.6517 0 0
lhand -29.103 -4.33873 0.00247494
lfingers 7.12502 -0 0
lthumb -2.45108 25.6183 0.00234692
rclavicle 3.33958e-014 1.11319e-014 0
rhumerus 22.6106 42.2997 -69.821
rradius 96.0058 -0 0
rwrist 0.206747 0 0
rhand -18.8719 -19.2881 0.109204
rfingers 7.12502 -0 0
rthumb 7.42838 -49.1113 0.106685
749
root 4.0667 16.455 14.8619 -163.028 -4.57838 188.626
lfemur -35.5546 4.58278 -17.4491
ltibia 50.3363 0 0
lfoot -31.3866 8.74706 0
ltoes 4.86623 0 0
rfemur -28.1509 -33.1171 14.4801
rtibia 103.027 0 0
rfoot 13.4599 2.38537 0
rtoes 15.8943 0 0
lowerback 3.01931 6.28353 -2.97093
upperback -1.12704 8.19672 -1.68484
thorax -3.01046 4.11638 -0.558462
lowerneck -6.24625 -8.73679 -1.64149
upperneck -2.19233 -11.7486 6.21038
head 0.855103 -5.89205 1.86583
lclavicle 3.33958e-014 1.11319e-014 0
lhumerus -52.5012 -4.35778 79.6448
lradius 48.4536 0 0
lwrist 13.9566 0 0
lhand -29.7329 -4.38371 0
lfingers 7.12502 0 0
lthumb -3.05947 25.5741 0
rclavicle 3.33958e-014 1.11319e-014 0
rhumerus 20.1089 44.7665 -73.1165
rradius 96.4773 0 0
rwrist 0.971849 0 0
rhand -17.7771 -18.1523 0
rfingers 7.12502 0 0
rthumb 8.48546 -767.962 0
750
root 3.98927 16.3972 15.0176 -163.07 -1.5497 -171.305
lfemur -36.2526 6.29055 -18.1027
ltibia 51.3543 -0 0
lfoot -31.5397 9.49567 -0.0100145
ltoes 5.75376 -0 0
rfemur -27.5727 -33.0018 15.3053
rtibia 101.022 -0 0
rfoot 13.3225 1.21558 0.0140764
rtoes 16.4307 -0 0
lowerback 3.05522 6.18664 -3.06329
upperback -1.08589 8.07148 -1.89246
thorax -2.96999 4.05868 -0.712777
lowerneck -6.14382 -8.74775 -1.68461
upperneck -2.09639 -11.7404 6.16827
head 0.867887 -5.87457 1.86259
lclavicle 3.57812e-014 -1.11319e-014 0
lhumerus -52.2772 -4.95053 80.7454
lradius 49.9943 -0 0
lwrist 13.8566 0 0
lhand -29.6268 -4.7483 -0.00337792
lfingers 7.12502 -0 0
lthumb -2.95697 25.2107 -0.00325145
rclavicle 3.57812e-014 -1.11319e-014 0
rhumerus 17.2053 46.2144 -75.1674
rradius 95.3629 -0 0
rwrist 1.43612 0 0
rhand -17.6084 -18.1583 -8.83175e-005
rfingers 7.12502 -0 0
rthumb 8.64821 -47.9606 1.93672e-005
751
root 3.91183 16.3394 15.1733 -163.109 1.47903 -171.238
lfemur -36.9728 7.99013 -18.7798
ltibia 52.3723 -0 0
lfoot -31.6929 10.2443 -0.0180282
ltoes 6.6413 -0 0
rfemur -26.9933 -32.8935 16.1308
rtibia 99.0174 -0 0
rfoot 13.1848 0.0457559 0.0253447
rtoes 16.967 -0 0
lowerback 3.09128 6.0898 -3.15569
upperback -1.04429 7.94639 -2.1001
thorax -2.92937 4.00108 -0.867122
lowerneck -6.04138 -8.75863 -1.72776
upperneck -2.00045 -11.7322 6.12617
head 0.88067 -5.85708 1.85936
lclavicle 3.57812e-014 -1.11319e-014 0
lhumerus -52.0644 -5.54746 81.8447
lradius 51.535 -0 0
lwrist 13.7567 0 0
lhand -29.5206 -5.11289 -0.00608043
lfingers 7.12502 -0 0
lthumb -2.85446 24.8473 -0.00585277
rclavicle 3.57812e-014 -1.11319e-014 0
rhumerus 14.1495 47.5856 -77.3788
rradius 94.2486 -0 0
rwrist 1.90039 0 0
rhand -17.4398 -18.1643 -0.000158972
rfingers 7.12502 -0 0
rthumb 8.81096 -47.9593 3.48612e-005
752
root 3.8344 16.2816 15.3291 -163.144 4.50781 -171.172
lfemur -37.7167 9.681 -19.4815
ltibia 53.3903 -0 0
lfoot -31.8461 10.993 -0.0240398
ltoes 7.52883 -0 0
rfemur -26.4128 -32.7922 16.9566
rtibia 97.0127 -0 0
rfoot 13.047 -1.12409 0.0338
rtoes 17.5034 -0 0
lowerback 3.12749 5.99303 -3.24814
upperback -1.00224 7.82145 -2.30778
thorax -2.88859 3.9436 -1.0215
lowerneck -5.93892 -8.76943 -1.77092
upperneck -1.90452 -11.7239 6.08408
head 0.893451 -5.8396 1.85613
lclavicle 3.57812e-014 -1.11319e-014 0
lhumerus -51.8629 -6.14834 82.943
lradius 53.0758 -0 0
lwrist 13.6567 0 0
lhand -29.4145 -5.47748 -0.00810742
lfingers 7.12502 -0 0
lthumb -2.75193 24.4839 -0.00780387
rclavicle 3.57812e-014 -1.11319e-014 0
rhumerus 10.9352 48.8721 -79.7563
rradius 93.1342 -0 0
rwrist 2.36466 0 0
rhand -17.2711 -18.1703 -0.000211964
rfingers 7.12502 -0 0
rthumb 8.97371 -47.9579 4.64818e-005
753
root 3.75697 16.2238 15.4848 -163.176 7.53662 -171.109
lfemur -38.4857 11.3626 -20.2095
ltibia 54.4083 -0 0
lfoot -31.9995 11.7416 -0.0280481
ltoes 8.41636 -0 0
rfemur -25.8313 -32.6979 17.7827
rtibia 95.0079 -0 0
rfoot 12.909 -2.29395 0.0394389
rtoes 18.0398 -0 0
lowerback 3.16386 5.89631 -3.34063
upperback -0.959755 7.69666 -2.51548
thorax -2.84767 3.88623 -1.1759
lowerneck -5.83646 -8.78016 -1.81411
upperneck -1.80861 -11.7156 6.04201
head 0.906231 -5.82211 1.8529
lclavicle 3.57812e-014 -1.11319e-014 0
lhumerus -51.6729 -6.75296 84.0405
lradius 54.6165 -0 0
lwrist 13.5567 0 0
lhand -29.3083 -5.84208 -0.0094588
lfingers 7.12502 -0 0
lthumb -2.64939 24.1205 -0.00910464
rclavicle 3.57812e-014 -1.11319e-014 0
rhumerus 7.55836 50.0655 -82.3031
rradius 92.0199 -0 0
rwrist 2.82893 0 0
rhand -17.1024 -18.1763 -0.000247292
rfingers 7.12502 -0 0
rthumb 9.13646 -47.9565 5.42289e-005
754
root 3.67953 16.166 15.6405 -163.205 10.5655 -171.046
lfemur -39.2814 13.0342 -20.9651
ltibia 55.4263 -0 0
lfoot -32.1529 12.4903 -0.0300524
ltoes 9.3039 -0 0
rfemur -25.2488 -32.6107 18.609
rtibia 93.0031 -0 0
rfoot 12.7709 -3.46383 0.042259
rtoes 18.5762 -0 0
lowerback 3.20037 5.79965 -3.43317
upperback -0.916823 7.57203 -2.72322
thorax -2.80659 3.82896 -1.33034
lowerneck -5.73398 -8.79081 -1.85731
upperneck -1.7127 -11.7071 5.99996
head 0.91901 -5.80463 1.84968
lclavicle 3.57812e-014 -1.11319e-014 0
lhumerus -51.4943 -7.36107 85.1373
lradius 56.1572 -0 0
lwrist 13.4568 0 0
lhand -29.2021 -6.20668 -0.0101345
lfingers 7.12502 -0 0
lthumb -2.54684 23.7571 -0.00975504
rclavicle 3.57812e-014 -1.11319e-014 0
rhumerus 4.01743 51.1568 -85.0201
rradius 90.9055 -0 0
rwrist 3.2932 0 0
rhand -16.9337 -18.1823 -0.000264956
rfingers 7.12502 -0 0
rthumb 9.29921 -47.9552 5.81025e-005
755
root 3.6021 16.1083 15.7962 -163.23 13.5943 -170.984
lfemur -40.1056 14.6952 -21.7502
ltibia 56.4443 -0 0
lfoot -32.3062 13.239 -0.0300524
ltoes 10.1914 -0 0
rfemur -24.6655 -32.5306 19.4356
rtibia 90.9983 -0 0
rfoot 12.6327 -4.6337 0.042259
rtoes 19.1125 -0 0
lowerback 3.23703 5.70305 -3.52575
upperback -0.873448 7.44755 -2.93099
thorax -2.76535 3.77181 -1.4848
lowerneck -5.63149 -8.80139 -1.90054
upperneck -1.6168 -11.6986 5.95792
head 0.931787 -5.78714 1.84647
lclavicle 3.57812e-014 -1.11319e-014 0
lhumerus -51.3272 -7.97247 86.2338
lradius 57.6979 -0 0
lwrist 13.3568 0 0
lhand -29.0959 -6.57128 -0.0101345
lfingers 7.12502 -0 0
lthumb -2.4443 23.3938 -0.00975504
rclavicle 3.57812e-014 -1.11319e-014 0
rhumerus 0.314553 52.1371 -87.9042
rradius 89.7912 -0 0
rwrist 3.75747 0 0
rhand -16.7651 -18.1883 -0.000264956
rfingers 7.12502 -0 0
rthumb 9.46195 -47.9538 5.81025e-005
756
root 3.52466 16.0505 15.9519 -163.253 16.6232 -170.923
lfemur -40.9601 16.3449 -22.5663
ltibia 57.4623 -0 0
lfoot -32.4596 13.9876 -0.0280481
ltoes 11.079 -0 0
rfemur -24.0813 -32.4576 20.2624
rtibia 88.9935 -0 0
rfoot 12.4946 -5.80358 0.0394389
rtoes 19.6489 -0 0
lowerback 3.27385 5.6065 -3.61838
upperback -0.82963 7.32322 -3.1388
thorax -2.72397 3.71477 -1.6393
lowerneck -5.52899 -8.81189 -1.94378
upperneck -1.52091 -11.6901 5.9159
head 0.944563 -5.76966 1.84325
lclavicle 3.57812e-014 -1.11319e-014 0
lhumerus -51.1718 -8.58693 87.3302
lradius 59.2386 -0 0
lwrist 13.2569 0 0
lhand -28.9897 -6.93588 -0.0094588
lfingers 7.12502 -0 0
lthumb -2.34175 23.0304 -0.00910464
rclavicle 3.57812e-014 -1.11319e-014 0
rhumerus -3.5439 52.9973 -90.9484
rradius 88.6768 -0 0
rwrist 4.22174 0 0
rhand -16.5964 -18.1943 -0.000247292
rfingers 7.12502 -0 0
rthumb 9.6247 -47.9525 5.42289e-005
757
root 3.44723 15.9927 16.1076 -163.272 19.6521 -170.862
lfemur -41.8468 17.9825 -23.4155
ltibia 58.4803 -0 0
lfoot -32.613 14.7363 -0.0240398
ltoes 11.9665 -0 0
rfemur -23.4963 -32.3917 21.0894
rtibia 86.9887 -0 0
rfoot 12.3566 -6.97344 0.0338
rtoes 20.1853 -0 0
lowerback 3.31081 5.51002 -3.71106
upperback -0.785371 7.19906 -3.34664
thorax -2.68244 3.65784 -1.79383
lowerneck -5.42648 -8.82231 -1.98705
upperneck -1.42503 -11.6814 5.8739
head 0.957338 -5.75217 1.84004
lclavicle 3.57812e-014 -1.11319e-014 0
lhumerus -51.028 -9.20421 88.4268
lradius 60.7793 -0 0
lwrist 13.1569 0 0
lhand -28.8835 -7.30048 -0.00810742
lfingers 7.12502 -0 0
lthumb -2.23921 22.667 -0.00780387
rclavicle 3.57812e-014 -1.11319e-014 0
rhumerus -7.54666 53.7285 -94.1407
rradius 87.5625 -0 0
rwrist 4.68601 0 0
rhand -16.4277 -18.2003 -0.000211964
rfingers 7.12502 -0 0
rthumb 9.78745 -47.9511 4.64818e-005
